<svg width="27" height="20" viewBox="0 0 27 20" fill="none" xmlns="http://www.w3.org/2000/svg">
<path d="M23.9613 0H2.47875C1.10976 0 0 1.10976 0 2.47875V17.3512C0 18.7202 1.10976 19.83 2.47875 19.83H23.9613C25.3302 19.83 26.44 18.7202 26.44 17.3512V2.47875C26.44 1.10976 25.3302 0 23.9613 0ZM23.9613 2.47875V4.58595C22.8034 5.52885 20.9574 6.99503 17.0111 10.0852C16.1414 10.7692 14.4187 12.4127 13.22 12.3935C12.0215 12.4129 10.2982 10.769 9.42891 10.0852C5.4832 6.9955 3.63679 5.52901 2.47875 4.58595V2.47875H23.9613ZM2.47875 17.3512V7.76665C3.66204 8.70914 5.34011 10.0317 7.89781 12.0345C9.02652 12.923 11.0032 14.8844 13.22 14.8724C15.4259 14.8844 17.3775 12.9515 18.5417 12.035C21.0994 10.0322 22.7779 8.70924 23.9613 7.7667V17.3512H2.47875Z" fill="#FDE428"/>
</svg>
