<svg width="43" height="43" viewBox="0 0 43 43" fill="none" xmlns="http://www.w3.org/2000/svg">
<path d="M21.5354 10.6242C15.501 10.6242 10.6336 15.4915 10.6336 21.5259C10.6336 27.5603 15.501 32.4276 21.5354 32.4276C27.5697 32.4276 32.4371 27.5603 32.4371 21.5259C32.4371 15.4915 27.5697 10.6242 21.5354 10.6242ZM21.5354 28.6134C17.6358 28.6134 14.4478 25.4349 14.4478 21.5259C14.4478 17.6168 17.6263 14.4383 21.5354 14.4383C25.4444 14.4383 28.6229 17.6168 28.6229 21.5259C28.6229 25.4349 25.4349 28.6134 21.5354 28.6134ZM35.4258 10.1782C35.4258 11.5919 34.2873 12.721 32.883 12.721C31.4693 12.721 30.3402 11.5824 30.3402 10.1782C30.3402 8.774 31.4788 7.63544 32.883 7.63544C34.2873 7.63544 35.4258 8.774 35.4258 10.1782ZM42.6462 12.759C42.4849 9.35277 41.7069 6.33558 39.2115 3.84972C36.7257 1.36386 33.7085 0.585845 30.3023 0.415061C26.7917 0.215813 16.2695 0.215813 12.759 0.415061C9.36225 0.576357 6.34507 1.35437 3.84972 3.84023C1.35437 6.32609 0.585845 9.34328 0.415061 12.7495C0.215813 16.26 0.215813 26.7822 0.415061 30.2928C0.576357 33.699 1.35437 36.7162 3.84972 39.202C6.34507 41.6879 9.35277 42.4659 12.759 42.6367C16.2695 42.8359 26.7917 42.8359 30.3023 42.6367C33.7085 42.4754 36.7257 41.6974 39.2115 39.202C41.6974 36.7162 42.4754 33.699 42.6462 30.2928C42.8454 26.7822 42.8454 16.2695 42.6462 12.759ZM38.1109 34.0595C37.3709 35.9192 35.9382 37.3519 34.069 38.1014C31.2701 39.2115 24.6285 38.9554 21.5354 38.9554C18.4423 38.9554 11.7912 39.202 9.00171 38.1014C7.14206 37.3614 5.70937 35.9287 4.95982 34.0595C3.84972 31.2606 4.1059 24.619 4.1059 21.5259C4.1059 18.4328 3.85921 11.7817 4.95982 8.99222C5.69988 7.13257 7.13257 5.69988 9.00171 4.95033C11.8007 3.84023 18.4423 4.09641 21.5354 4.09641C24.6285 4.09641 31.2796 3.84972 34.069 4.95033C35.9287 5.69039 37.3614 7.12308 38.1109 8.99222C39.221 11.7912 38.9648 18.4328 38.9648 21.5259C38.9648 24.619 39.221 31.2701 38.1109 34.0595Z" fill="white"/>
</svg>
