<svg width="17" height="21" viewBox="0 0 17 21" fill="none" xmlns="http://www.w3.org/2000/svg">
<path d="M14.06 2.60479C12.516 0.925602 10.48 0 8.324 0C3.736 0 0 3.93995 0 8.78093C0 11.8567 2.312 15.3257 3.308 16.6731C4.772 18.6554 6.964 20.9694 8.324 20.9694C9.988 20.9694 12.84 17.1113 13.16 16.669C14.144 15.3134 16.44 11.8239 16.44 8.78093C16.44 6.46692 15.596 4.27169 14.06 2.60479ZM8.324 20.2281C6.624 20.2281 0.724 13.3762 0.724 8.78502C0.724 4.38637 4.08 0.745396 8.324 0.745396C12.356 0.745396 15.712 4.39046 15.712 8.78502C15.716 13.3762 9.816 20.2281 8.324 20.2281ZM12.78 8.46966C12.78 10.8902 10.736 12.9625 8.348 12.9625C4.324 12.9625 2.32 8.5311 4.632 5.51675V5.53313C4.632 6.53655 5.436 7.35157 6.424 7.35157C7.412 7.35157 8.216 6.53655 8.216 5.53313C8.216 4.78774 7.772 4.14882 7.14 3.86623C10.204 3.07988 12.78 5.47579 12.78 8.46966Z" fill="#FDE428"/>
</svg>
