<svg width="43" height="44" viewBox="0 0 43 44" fill="none" xmlns="http://www.w3.org/2000/svg">
<path d="M21.5306 0.95166C9.78343 0.95166 0.265625 10.4695 0.265625 22.2167C0.265625 33.9639 9.78343 43.4817 21.5306 43.4817C33.2778 43.4817 42.7956 33.9639 42.7956 22.2167C42.7956 10.4695 33.2778 0.95166 21.5306 0.95166ZM31.9745 15.5199L28.4846 31.966C28.2274 33.1321 27.5328 33.4151 26.5639 32.8663L21.2477 28.9477L18.6839 31.4172C18.4009 31.7002 18.1608 31.9403 17.612 31.9403L17.9893 26.5297L27.8415 17.6293C28.2703 17.252 27.7472 17.0376 27.1813 17.4149L15.0054 25.0806L9.7577 23.4428C8.61728 23.0827 8.59156 22.3024 9.99779 21.7536L30.4997 13.8479C31.4514 13.5049 32.2832 14.0794 31.9745 15.5199Z" fill="white"/>
</svg>
