<svg width="17" height="27" viewBox="0 0 17 27" fill="none" xmlns="http://www.w3.org/2000/svg">
<path d="M13.974 0H2.466C1.10456 0 0 1.10456 0 2.466V23.838C0 25.1994 1.10456 26.304 2.466 26.304H13.974C15.3354 26.304 16.44 25.1994 16.44 23.838V2.466C16.44 1.10456 15.3354 0 13.974 0ZM8.22 24.66C7.31066 24.66 6.576 23.9253 6.576 23.016C6.576 22.1067 7.31066 21.372 8.22 21.372C9.12934 21.372 9.864 22.1067 9.864 23.016C9.864 23.9253 9.12934 24.66 8.22 24.66ZM13.974 19.1115C13.974 19.4506 13.6966 19.728 13.3575 19.728H3.0825C2.74343 19.728 2.466 19.4506 2.466 19.1115V3.0825C2.466 2.74343 2.74343 2.466 3.0825 2.466H13.3575C13.6966 2.466 13.974 2.74343 13.974 3.0825V19.1115Z" fill="#FDE428"/>
</svg>
