<svg width="25" height="25" viewBox="0 0 25 25" fill="none" xmlns="http://www.w3.org/2000/svg">
<path d="M12.5 0C5.59476 0 0 5.59476 0 12.5C0 19.4052 5.59476 25 12.5 25C19.4052 25 25 19.4052 25 12.5C25 5.59476 19.4052 0 12.5 0ZM17.1618 15.7762L16.1537 17.0363C16.0876 17.119 16.0058 17.1879 15.913 17.239C15.8202 17.2901 15.7183 17.3224 15.613 17.3341C15.5078 17.3458 15.4012 17.3366 15.2995 17.3072C15.1978 17.2777 15.1029 17.2285 15.0202 17.1623L11.6431 14.6562C11.4072 14.4673 11.2167 14.2278 11.0859 13.9553C10.955 13.6828 10.8871 13.3844 10.8871 13.0822V5.24194C10.8871 5.02805 10.9721 4.82293 11.1233 4.67169C11.2745 4.52045 11.4797 4.43548 11.6935 4.43548H13.3065C13.5203 4.43548 13.7255 4.52045 13.8767 4.67169C14.0279 4.82293 14.1129 5.02805 14.1129 5.24194V12.5L17.0363 14.6421C17.119 14.7083 17.1879 14.7902 17.239 14.883C17.2901 14.9759 17.3224 15.0778 17.3341 15.1832C17.3457 15.2885 17.3365 15.3951 17.3069 15.4968C17.2774 15.5986 17.2281 15.6935 17.1618 15.7762Z" fill="#FDE428"/>
</svg>
